<?xml version="1.0" encoding="UTF-8"?>
<svg id="Layer_2" xmlns="http://www.w3.org/2000/svg" version="1.1" xmlns:xlink="http://www.w3.org/1999/xlink" viewBox="0 0 512 512">
  <!-- Generator: Adobe Illustrator 29.5.0, SVG Export Plug-In . SVG Version: 2.1.0 Build 137)  -->
  <defs>
    <style>
      .st0 {
        fill: url(#linear-gradient2);
      }

      .st1 {
        fill: url(#linear-gradient1);
      }

      .st2 {
        fill: url(#linear-gradient4);
      }

      .st3 {
        fill: url(#linear-gradient5);
      }

      .st4 {
        fill: url(#linear-gradient3);
      }

      .st5 {
        fill: url(#linear-gradient);
      }
    </style>
    <linearGradient id="linear-gradient" x1="834.87" y1="741.06" x2="812.4" y2="508.9" gradientTransform="translate(484.79 1269.76) rotate(-149.99) scale(.9 .94) skewX(.01)" gradientUnits="userSpaceOnUse">
      <stop offset="0" stop-color="#858585"/>
      <stop offset="1" stop-color="#d9d9d9"/>
    </linearGradient>
    <linearGradient id="linear-gradient1" x1="832.59" y1="567.65" x2="815.67" y2="392.84" gradientTransform="translate(480.72 1276.97) rotate(-149.99) scale(.9 1.24) skewX(.02)" gradientUnits="userSpaceOnUse">
      <stop offset="0" stop-color="#adadad"/>
      <stop offset="1" stop-color="#e6e6e6"/>
    </linearGradient>
    <linearGradient id="linear-gradient2" x1="283.26" y1="1046" x2="260.79" y2="813.84" gradientTransform="translate(602.24 1269.76) rotate(-30.01) scale(.9 -.94) skewX(.01)" gradientUnits="userSpaceOnUse">
      <stop offset="0" stop-color="#858585"/>
      <stop offset="1" stop-color="#d9d9d9"/>
    </linearGradient>
    <linearGradient id="linear-gradient3" x1="280.95" y1="797.11" x2="264.03" y2="622.3" gradientTransform="translate(605.27 1275.16) rotate(-30.01) scale(.9 -1.24) skewX(.02)" gradientUnits="userSpaceOnUse">
      <stop offset="0" stop-color="#adadad"/>
      <stop offset="1" stop-color="#e6e6e6"/>
    </linearGradient>
    <linearGradient id="linear-gradient4" x1="255" y1="1043.27" x2="255" y2="696.99" gradientTransform="translate(512 1079.95) rotate(-180)" gradientUnits="userSpaceOnUse">
      <stop offset="0" stop-color="#b3b3b3"/>
      <stop offset=".2" stop-color="#c7c7c7"/>
      <stop offset=".43" stop-color="#d8d8d8"/>
      <stop offset=".68" stop-color="#e2e2e2"/>
      <stop offset="1" stop-color="#e6e6e6"/>
    </linearGradient>
    <linearGradient id="linear-gradient5" x1="255" y1="1019.66" x2="255" y2="780.33" gradientTransform="translate(512 1079.95) rotate(-180)" gradientUnits="userSpaceOnUse">
      <stop offset="0" stop-color="#616161"/>
      <stop offset="1" stop-color="#9c9c9c"/>
    </linearGradient>
  </defs>
  <g id="Icon">
    <g id="_150">
      <g>
        <path class="st5" d="M165.31,496.24L28,416.93l96.57-167.25,137.31,79.31-96.57,167.25Z"/>
        <path class="st1" d="M48.37,428.67l96.48-167.25,96.67,55.84-96.57,167.25-96.57-55.84Z"/>
        <path class="st0" d="M252.12,328.99l137.31-79.31,96.57,167.25-137.31,79.31-96.57-167.25Z"/>
        <path class="st4" d="M272.49,317.26l96.67-55.84,96.48,167.25-96.57,55.84-96.57-167.25Z"/>
      </g>
      <path class="st2" d="M237.38,335.09c-7.32-8.73-19.62-11.54-30.03-6.85-14.45,6.48-31.35-1.6-35.29-16.99-2.82-11.07-12.67-18.96-24.12-19.24-15.86-.38-27.59-15.02-24.4-30.6,2.25-11.26-3.19-22.52-13.42-27.78-14.17-7.23-18.3-25.53-8.73-38.2,6.95-9.1,6.95-21.68,0-30.88-9.57-12.67-5.44-30.97,8.73-38.2,10.23-5.26,15.67-16.61,13.42-27.78-3.1-15.58,8.54-30.22,24.4-30.6,11.45-.28,21.3-8.17,24.12-19.24,3.94-15.39,20.84-23.46,35.29-16.99,10.42,4.69,22.71,1.88,30.03-6.85,10.23-12.2,28.91-12.2,39.14,0,7.32,8.73,19.62,11.54,30.13,6.85,14.45-6.57,31.35,1.6,35.29,16.99,2.82,11.07,12.67,18.96,24.12,19.24,15.86.38,27.59,15.02,24.4,30.6-2.25,11.26,3.19,22.52,13.42,27.78,14.17,7.23,18.3,25.53,8.73,38.2-6.85,9.1-6.85,21.68,0,30.88,9.57,12.67,5.44,30.97-8.73,38.2-10.14,5.26-15.67,16.61-13.42,27.78,3.1,15.58-8.54,30.22-24.4,30.6-11.45.28-21.3,8.17-24.12,19.24-3.94,15.39-20.84,23.56-35.29,16.99-10.42-4.69-22.71-1.88-30.13,6.85-10.14,12.11-28.91,12.11-39.14,0h0Z"/>
      <circle class="st3" cx="257" cy="179.96" r="119.66"/>
    </g>
  </g>
</svg>