<svg xmlns="http://www.w3.org/2000/svg" width="51.761" height="64.702" viewBox="0 0 51.761 64.702">
  <path id="Path_195" data-name="Path 195" d="M39.586,40.821H20.175a3.235,3.235,0,0,0,0,6.47H39.586a3.235,3.235,0,0,0,0-6.47Zm0-12.94H26.646a3.235,3.235,0,1,0,0,6.47h12.94a3.235,3.235,0,1,0,0-6.47ZM46.056,8.47H42.239A9.705,9.705,0,0,0,33.116,2h-6.47a9.705,9.705,0,0,0-9.123,6.47H13.705A9.705,9.705,0,0,0,4,18.175V57A9.705,9.705,0,0,0,13.705,66.7H46.056A9.705,9.705,0,0,0,55.761,57V18.175A9.705,9.705,0,0,0,46.056,8.47ZM23.411,11.705A3.235,3.235,0,0,1,26.646,8.47h6.47a3.235,3.235,0,0,1,3.235,3.235V14.94H23.411ZM49.291,57a3.235,3.235,0,0,1-3.235,3.235H13.705A3.235,3.235,0,0,1,10.47,57V18.175a3.235,3.235,0,0,1,3.235-3.235H16.94v3.235a3.235,3.235,0,0,0,3.235,3.235H39.586a3.235,3.235,0,0,0,3.235-3.235V14.94h3.235a3.235,3.235,0,0,1,3.235,3.235Z" transform="translate(-4 -2)" fill="#ed9023"/>
</svg>
