<svg xmlns="http://www.w3.org/2000/svg" width="61.799" height="47.907" viewBox="0 0 61.799 47.907">
  <path id="Path_197" data-name="Path 197" d="M32.9,5A30.9,30.9,0,0,0,6.14,51.35a3.1,3.1,0,1,0,5.377-3.09A24.473,24.473,0,0,1,8.179,35.9,24.72,24.72,0,1,1,54.314,48.26a3.087,3.087,0,1,0,5.346,3.09A30.9,30.9,0,0,0,32.9,5Zm8.776,17.8-4.79,4.759A8.992,8.992,0,0,0,32.9,26.63a9.27,9.27,0,1,0,9.27,9.27,8.961,8.961,0,0,0-.927-3.955l4.79-4.759A3.092,3.092,0,1,0,41.675,22.8ZM32.9,38.99a3.1,3.1,0,1,1,3.09-3.09A3.09,3.09,0,0,1,32.9,38.99Z" transform="translate(-2 -5)" fill="#6563ff"/>
</svg>
