<svg xmlns="http://www.w3.org/2000/svg" width="49.175" height="47.907" viewBox="0 0 49.175 47.907">
  <path id="Path_198" data-name="Path 198" d="M35,28.073A13.865,13.865,0,0,0,39.794,17.59a14.09,14.09,0,0,0-28.18,0,13.865,13.865,0,0,0,4.932,10.483A22.544,22.544,0,0,0,3.3,48.589a2.818,2.818,0,0,0,5.636,0,16.908,16.908,0,1,1,33.816,0,2.818,2.818,0,0,0,5.636,0A22.544,22.544,0,0,0,35,28.073Zm-9.3-2.029a8.454,8.454,0,1,1,8.454-8.454A8.454,8.454,0,0,1,25.7,26.044Zm23.953-14.09a2.818,2.818,0,0,0-2.818,2.818v5.636a2.818,2.818,0,1,0,5.636,0V14.772A2.818,2.818,0,0,0,49.657,11.954ZM47.543,26.862a2.959,2.959,0,0,0-.817,2,2.818,2.818,0,0,0,.817,2,3.241,3.241,0,0,0,.93.592,2.649,2.649,0,0,0,2.142,0,2.536,2.536,0,0,0,1.522-1.522,2.367,2.367,0,0,0,.225-1.071,2.818,2.818,0,0,0-4.819-2Z" transform="translate(-3.3 -3.5)" fill="#8cc17c"/>
</svg>
