<svg xmlns="http://www.w3.org/2000/svg" width="50.947" height="56.607" viewBox="0 0 50.947 56.607">
  <path id="Path_196" data-name="Path 196" d="M51.626,25.181a33.681,33.681,0,0,0-6.17-.538,18.143,18.143,0,0,0-3.51.226A16.727,16.727,0,0,0,36.54,20.2a10.784,10.784,0,0,0,2.83-7.274,10.925,10.925,0,1,0-21.85,0A10.784,10.784,0,0,0,20.35,20.2a17.293,17.293,0,0,0-5.406,4.642,19.709,19.709,0,0,0-3.453-.2,33.681,33.681,0,0,0-6.17.594A2.83,2.83,0,0,0,3,28.068v23.35a2.849,2.849,0,0,0,3.34,2.8,27.6,27.6,0,0,1,5.151-.623,27.992,27.992,0,0,1,15.425,4.613h0l.368.142h0a3.085,3.085,0,0,0,1.189.255,2.462,2.462,0,0,0,.792-.142h.2l.368-.142h0A27.992,27.992,0,0,1,45.455,53.6a27.6,27.6,0,0,1,5.151.509,2.849,2.849,0,0,0,3.34-2.8V27.954A2.83,2.83,0,0,0,51.626,25.181ZM28.473,7.661a5.264,5.264,0,0,1,0,10.5h0a5.264,5.264,0,0,1,0-10.5ZM25.643,51.05a33.738,33.738,0,0,0-14.152-3.113,19.157,19.157,0,0,0-2.83.142V30.3a27.256,27.256,0,0,1,7.132.142H16.1a28.3,28.3,0,0,1,9.538,3.623Zm2.83-21.879a33.313,33.313,0,0,0-3.906-1.925H24.4c-.934-.368-1.868-.736-2.83-1.019a11.321,11.321,0,0,1,6.906-2.462h0a11.321,11.321,0,0,1,6.906,2.406,35.182,35.182,0,0,0-6.906,3ZM48.286,48.078A32.832,32.832,0,0,0,31.3,50.908V33.926a27.624,27.624,0,0,1,9.538-3.453h.566a26.577,26.577,0,0,1,6.878-.17Z" transform="translate(-3 -2)" fill="#2c9ad9"/>
</svg>
